<svg xmlns="http://www.w3.org/2000/svg" fill="none" viewBox="0 0 495 97"><path fill="#BBB" fill-rule="evenodd" d="M465 89h30V76h-30v13Zm0-27h27V49h-27v13Zm0-27h30V22h-30v13Zm-3-13h-14v67h14V22ZM359 22h-15l-23 67h17l5-14 3-12 13-41Zm-8 41-4 12h19l4 14h18l-23-67h-2l-7 22 6 19h-11ZM119 89V22h-16v39h-1L76 22H62v67h16V50h1l26 39h14Zm10-67v67h16V62h27V49h-27V35h30V22h-46Zm113 52c3-5 4-11 4-18 0-8-1-14-4-19s-7-9-12-12c-4-2-10-4-16-4s-11 2-16 4c-5 3-9 7-12 12-2 5-4 11-4 19 0 7 2 13 4 18 3 5 7 9 12 12s10 4 16 4 12-1 16-4c5-3 9-7 12-12Zm-14-29 2 11-2 11c-1 3-3 5-6 6-2 2-5 3-8 3s-6-1-8-3c-2-1-4-3-5-6-2-3-2-7-2-11 0-5 0-8 2-11 1-4 3-6 5-7 2-2 5-3 8-3s6 1 8 3c3 1 5 3 6 7Zm72 1h16c0-4-1-7-3-10-1-3-3-6-6-8l-9-5a36 36 0 0 0-28 2c-4 3-8 7-11 12s-4 11-4 19c0 7 1 13 4 18s7 9 11 12c5 3 11 4 17 4l12-2a28 28 0 0 0 15-14l2-8-16-1-2 5a11 11 0 0 1-6 5l-5 1c-3 0-6-1-8-3-3-1-4-3-6-6l-2-11 2-11c1-3 3-6 6-7 2-2 5-3 8-3l5 1 4 2 3 4 1 4Zm84-24v13h21v54h16V35h20V22h-57Z" clip-rule="evenodd"/><path fill="#fff" d="M51 22v67H35V22h16Zm67 0v67h-13L78 50v39H61V22h14l27 39V22h16Zm11 67V22h45v13h-29v14h26v13h-26v27h-16Zm116-33c0 7-1 13-4 18s-6 9-11 12-10 4-16 4-12-1-17-4-8-7-11-12-4-11-4-18c0-8 1-14 4-19s6-9 11-12c5-2 11-4 17-4s11 2 16 4c5 3 8 7 11 12s4 11 4 19Zm-16 0-2-11c-1-4-3-6-5-7-3-2-5-3-8-3-4 0-6 1-9 3-2 1-4 3-5 7l-2 11 2 11c1 3 3 5 5 6 3 2 5 3 9 3 3 0 5-1 8-3 2-1 4-3 5-6l2-11Z"/><path fill="#BBB" d="M0 22h32v13H0z"/><path fill="#fff" d="M35 22h16v67H35z"/><path fill="#BBB" d="M0 76h32v13H0zM2 49h30v13H2z"/></svg>